<svg width="483" height="81" viewBox="0 0 483 81" fill="none" xmlns="http://www.w3.org/2000/svg">
<path d="M158.041 79.0203C158.041 58.0628 149.715 37.9636 134.896 23.1444L134.197 22.4548C119.448 8.06733 99.6504 -1.37013e-05 79.0203 -1.52588e-05V6.17345C98.3405 6.17345 116.869 13.8484 130.531 27.5099C142.73 39.7086 150.155 55.7883 151.605 72.8469H6.43572C7.88594 55.7883 15.3112 39.7086 27.5099 27.5099C41.1713 13.8484 59.7001 6.17345 79.0203 6.17345V-1.52588e-05L78.0389 0.00601351C57.7632 0.257553 38.3581 8.29564 23.8432 22.4548L23.1445 23.1444C8.32528 37.9636 3.16449e-06 58.0628 0 79.0203H158.041Z" fill="#EB833A"/>
<path d="M135.816 79.0203C135.816 63.7934 129.8 49.1902 119.091 38.4232C108.381 27.6561 93.8568 21.6071 78.7117 21.6071V27.7806C92.2087 27.7806 105.16 33.1709 114.714 42.7765C122.812 50.9181 127.906 61.5231 129.271 72.8469H28.152C29.5178 61.5231 34.6119 50.9181 42.7097 42.7765C52.2637 33.1709 65.2147 27.7806 78.7117 27.7806V21.6071L78.0021 21.6113C63.35 21.7942 49.3266 27.6342 38.8374 37.9216L38.3328 38.4232C27.6236 49.1902 21.6072 63.7934 21.6072 79.0203H135.816Z" fill="#EB833A"/>
<path d="M458.553 80.4649C453.96 80.4649 449.96 79.7358 446.552 78.2777C443.144 76.8196 440.255 74.7475 437.884 72.0615C435.588 69.3755 433.847 66.1907 432.661 62.507C431.55 58.7466 430.995 54.5641 430.995 49.9596C430.995 45.5085 431.55 41.3644 432.661 37.5272C433.773 33.6133 435.44 30.1983 437.662 27.282C439.884 24.3658 442.662 22.1019 445.996 20.4903C449.33 18.8019 453.182 17.9578 457.553 17.9578C461.553 17.9578 465.109 18.6868 468.221 20.1449C471.332 21.5263 473.925 23.56 475.999 26.246C478.148 28.932 479.703 32.232 480.666 36.1458C481.703 39.983 482.037 44.3957 481.666 49.384L437.217 50.0747V42.9376L474.666 42.362L472.11 46.6212C472.332 42.5539 471.888 39.0621 470.776 36.1458C469.739 33.2296 468.11 30.9657 465.887 29.3541C463.665 27.7425 460.887 26.9367 457.553 26.9367C453.997 26.9367 450.96 27.896 448.441 29.8145C445.996 31.6564 444.107 34.304 442.774 37.7574C441.514 41.1341 440.885 45.1248 440.885 49.7293C440.885 56.8664 442.403 62.3535 445.441 66.1907C448.552 69.9511 452.997 71.8313 458.775 71.8313C461.516 71.8313 463.813 71.4092 465.665 70.565C467.591 69.7209 469.11 68.6081 470.221 67.2267C471.332 65.8453 472.147 64.3489 472.666 62.7373C473.258 61.1257 473.554 59.5524 473.554 58.0176L483 59.1687C482.778 62.3152 482.074 65.193 480.889 67.8023C479.777 70.3348 478.185 72.5603 476.11 74.4789C474.036 76.3975 471.517 77.894 468.554 78.9684C465.665 79.966 462.331 80.4649 458.553 80.4649Z" fill="white"/>
<path d="M415.979 78.9685V0H426.091V78.9685H415.979Z" fill="white"/>
<path d="M402.442 80.1196C397.257 80.1196 393.293 78.6231 390.552 75.6301C387.885 72.5604 386.552 68.071 386.552 62.1618V28.3181H378.996V20.2601H382.663C384.959 20.1066 386.626 19.4543 387.663 18.3032C388.7 17.152 389.33 15.4253 389.552 13.123L390.219 6.56152H396.553V19.5694H412.11V28.5484H396.553V61.7013C396.553 64.771 397.22 66.9966 398.553 68.3779C399.961 69.7593 401.85 70.45 404.22 70.45C405.554 70.45 406.924 70.2581 408.332 69.8744C409.739 69.4907 411.036 68.8384 412.221 67.9175V78.1627C410.443 78.7766 408.739 79.2371 407.11 79.544C405.554 79.9277 403.998 80.1196 402.442 80.1196Z" fill="white"/>
<path d="M329.317 78.9684V48.2328L329.206 19.5694H338.54L337.095 44.8945H338.318C338.984 38.8318 340.133 33.8052 341.762 29.8145C343.466 25.8239 345.763 22.8693 348.652 20.9507C351.541 18.9554 355.023 17.9578 359.097 17.9578C365.543 17.9578 370.321 20.3752 373.432 25.21C376.618 29.968 378.211 37.2586 378.211 47.0817V78.9684H368.098V47.6573C368.098 40.7504 367.135 35.6854 365.209 32.4622C363.357 29.1622 360.357 27.5123 356.208 27.5123C352.652 27.5123 349.615 28.7401 347.096 31.1959C344.652 33.5749 342.762 37.1435 341.429 41.9016C340.17 46.5829 339.503 52.377 339.429 59.2838V78.9684H329.317Z" fill="white"/>
<path d="M291.362 80.4649C288.325 80.4649 285.51 79.8893 282.917 78.7382C280.398 77.587 278.398 75.8219 276.917 73.4429C275.435 70.9871 274.694 67.8407 274.694 64.0035C274.694 60.7036 275.287 57.9792 276.472 55.8304C277.657 53.6048 279.324 51.8014 281.473 50.42C283.695 48.9619 286.325 47.8108 289.362 46.9666C292.4 46.1224 295.77 45.3934 299.474 44.7794C303.327 44.1655 306.216 43.6666 308.142 43.2829C310.068 42.8225 311.364 42.2469 312.031 41.5562C312.698 40.7888 313.031 39.676 313.031 38.2179C313.031 34.6877 311.883 31.925 309.587 29.9297C307.364 27.9343 304.401 26.9367 300.697 26.9367C298.474 26.9367 296.289 27.3588 294.141 28.2029C291.992 29.0471 290.14 30.4285 288.584 32.3471C287.103 34.2656 286.214 36.8365 285.917 40.0597L276.583 38.1028C276.954 34.4959 277.843 31.4261 279.25 28.8936C280.732 26.3611 282.584 24.2891 284.806 22.6775C287.103 21.0659 289.584 19.8763 292.251 19.1089C294.992 18.3415 297.845 17.9578 300.808 17.9578C305.327 17.9578 309.216 18.8019 312.476 20.4903C315.809 22.1786 318.402 24.7879 320.254 28.3181C322.106 31.7715 323.032 36.1842 323.032 41.5562V53.413C323.032 56.1757 323.069 59.0152 323.143 61.9315C323.218 64.7709 323.292 67.6488 323.366 70.565C323.44 73.4045 323.514 76.2056 323.588 78.9684H314.143C314.217 75.8219 314.291 72.7138 314.365 69.6441C314.513 66.5744 314.624 63.3512 314.698 59.9745H313.698C312.957 63.8117 311.587 67.3035 309.587 70.4499C307.66 73.5196 305.142 75.9754 302.03 77.8172C298.993 79.5823 295.437 80.4649 291.362 80.4649ZM294.252 71.8313C296.326 71.8313 298.363 71.4092 300.363 70.565C302.438 69.7209 304.364 68.4546 306.142 66.7663C307.92 65.0012 309.401 62.8907 310.587 60.435C311.846 57.9025 312.698 55.0246 313.142 51.8014V46.6212L316.143 46.1608C315.18 47.3119 313.735 48.2328 311.809 48.9235C309.957 49.5375 307.846 50.0363 305.475 50.42C303.104 50.8037 300.697 51.2258 298.252 51.6863C295.881 52.07 293.659 52.6839 291.585 53.5281C289.584 54.2955 287.955 55.4083 286.695 56.8664C285.51 58.3245 284.917 60.3582 284.917 62.9675C284.917 65.7302 285.732 67.9174 287.362 69.529C288.992 71.0639 291.288 71.8313 294.252 71.8313Z" fill="white"/>
<path d="M193.946 78.9684V2.99292H209.836L232.061 67.6872H232.394L254.396 2.99292H269.842V78.9684H260.063L260.286 13.6986H259.841L237.061 78.9684H226.504L203.947 13.5834H203.502L203.724 78.9684H193.946Z" fill="white"/>
</svg>
